<svg xmlns="http://www.w3.org/2000/svg" width="1600" height="1200" viewBox="0 0 1600 1200" role="img" aria-labelledby="title desc">
<title id="title">LLM-WIKI knowledge graph</title>
<desc id="desc">Zoomable SVG visualization of the LLM-WIKI computational biology knowledge graph.</desc>
<rect width="100%" height="100%" fill="#181818"/>
<text x="70" y="62" fill="#f2f2f2" font-family="Inter,Segoe UI,Arial,sans-serif" font-size="34" font-weight="700">LLM-WIKI Knowledge Graph</text>
<text x="70" y="96" fill="#a8a8a8" font-family="Inter,Segoe UI,Arial,sans-serif" font-size="18">Concepts, methods, entities, equations, lectures, and topic clusters generated from the Obsidian wiki.</text>
<g stroke="#6b6b6b" stroke-opacity="0.28" stroke-linecap="round">
<line x1="947.3" y1="723.7" x2="982.4" y2="883.7" stroke-width="1.93"/>
<line x1="895.6" y1="650.9" x2="919.3" y2="515.2" stroke-width="1.87"/>
<line x1="1236.4" y1="952.0" x2="1139.8" y2="1005.9" stroke-width="1.93"/>
<line x1="1205.9" y1="464.2" x2="1320.8" y2="487.5" stroke-width="1.87"/>
<line x1="1205.9" y1="464.2" x2="1120.9" y2="559.3" stroke-width="1.80"/>
<line x1="1205.9" y1="464.2" x2="1287.0" y2="594.3" stroke-width="1.87"/>
<line x1="808.1" y1="320.9" x2="806.9" y2="237.5" stroke-width="1.93"/>
<line x1="808.1" y1="320.9" x2="940.6" y2="441.0" stroke-width="1.87"/>
<line x1="808.1" y1="320.9" x2="611.8" y2="326.4" stroke-width="1.80"/>
<line x1="744.8" y1="377.7" x2="607.9" y2="620.9" stroke-width="1.87"/>
<line x1="806.9" y1="237.5" x2="744.8" y2="377.7" stroke-width="1.80"/>
<line x1="660.1" y1="387.4" x2="714.1" y2="262.1" stroke-width="1.68"/>
<line x1="660.1" y1="387.4" x2="607.9" y2="620.9" stroke-width="1.87"/>
<line x1="714.1" y1="262.1" x2="720.5" y2="130.0" stroke-width="1.74"/>
<line x1="517.9" y1="783.9" x2="607.9" y2="620.9" stroke-width="1.93"/>
<line x1="517.9" y1="783.9" x2="424.7" y2="862.9" stroke-width="1.87"/>
<line x1="517.9" y1="783.9" x2="443.9" y2="934.4" stroke-width="1.87"/>
<line x1="517.9" y1="783.9" x2="344.4" y2="835.4" stroke-width="1.80"/>
<line x1="517.1" y1="882.0" x2="517.9" y2="783.9" stroke-width="1.87"/>
<line x1="599.3" y1="203.9" x2="804.0" y2="161.9" stroke-width="1.93"/>
<line x1="524.2" y1="324.5" x2="599.3" y2="203.9" stroke-width="1.87"/>
<line x1="524.2" y1="324.5" x2="560.8" y2="502.9" stroke-width="1.87"/>
<line x1="611.8" y1="326.4" x2="692.8" y2="202.9" stroke-width="1.80"/>
<line x1="458.9" y1="257.3" x2="611.8" y2="326.4" stroke-width="1.87"/>
<line x1="940.6" y1="441.0" x2="900.5" y2="252.6" stroke-width="1.93"/>
<line x1="940.6" y1="441.0" x2="936.1" y2="305.9" stroke-width="1.93"/>
<line x1="940.6" y1="441.0" x2="988.8" y2="666.3" stroke-width="1.87"/>
<line x1="1137.1" y1="648.3" x2="940.6" y2="441.0" stroke-width="1.93"/>
<line x1="1137.1" y1="648.3" x2="1263.8" y2="751.8" stroke-width="1.87"/>
<line x1="1263.8" y1="751.8" x2="1059.7" y2="710.7" stroke-width="1.87"/>
<line x1="1180.6" y1="778.7" x2="988.8" y2="666.3" stroke-width="1.87"/>
<line x1="1059.7" y1="710.7" x2="744.7" y2="677.8" stroke-width="1.80"/>
<line x1="595.1" y1="551.0" x2="477.1" y2="524.5" stroke-width="1.87"/>
<line x1="595.1" y1="551.0" x2="430.8" y2="420.5" stroke-width="1.87"/>
<line x1="595.1" y1="551.0" x2="744.7" y2="677.8" stroke-width="1.87"/>
<line x1="611.8" y1="326.4" x2="595.1" y2="551.0" stroke-width="1.80"/>
<line x1="1369.6" y1="819.5" x2="1263.8" y2="751.8" stroke-width="1.80"/>
<line x1="507.5" y1="452.4" x2="595.1" y2="551.0" stroke-width="1.87"/>
<line x1="507.5" y1="452.4" x2="744.7" y2="677.8" stroke-width="1.87"/>
<line x1="391.6" y1="341.9" x2="507.5" y2="452.4" stroke-width="1.93"/>
<line x1="329.1" y1="395.0" x2="507.5" y2="452.4" stroke-width="1.80"/>
<line x1="264.7" y1="312.8" x2="391.6" y2="341.9" stroke-width="1.87"/>
<line x1="291.1" y1="541.3" x2="232.3" y2="452.7" stroke-width="1.87"/>
<line x1="291.1" y1="541.3" x2="143.6" y2="482.1" stroke-width="1.87"/>
<line x1="291.1" y1="541.3" x2="155.2" y2="642.4" stroke-width="1.80"/>
<line x1="458.7" y1="575.1" x2="485.6" y2="644.0" stroke-width="1.93"/>
<line x1="458.7" y1="575.1" x2="319.5" y2="603.2" stroke-width="1.93"/>
<line x1="458.7" y1="575.1" x2="752.1" y2="575.2" stroke-width="1.93"/>
<line x1="458.7" y1="575.1" x2="291.1" y2="541.3" stroke-width="1.93"/>
<line x1="458.7" y1="575.1" x2="243.1" y2="610.4" stroke-width="1.87"/>
<line x1="458.7" y1="575.1" x2="282.9" y2="674.6" stroke-width="1.93"/>
<line x1="458.7" y1="575.1" x2="532.4" y2="701.9" stroke-width="1.87"/>
<line x1="485.6" y1="644.0" x2="752.1" y2="575.2" stroke-width="1.93"/>
<line x1="485.6" y1="644.0" x2="319.5" y2="603.2" stroke-width="1.87"/>
<line x1="193.4" y1="545.4" x2="319.5" y2="603.2" stroke-width="1.87"/>
<line x1="193.4" y1="545.4" x2="155.2" y2="642.4" stroke-width="1.80"/>
<line x1="110.0" y1="570.0" x2="291.1" y2="541.3" stroke-width="1.80"/>
<line x1="682.9" y1="558.8" x2="403.3" y2="512.8" stroke-width="1.93"/>
<line x1="682.9" y1="558.8" x2="919.3" y2="515.2" stroke-width="1.93"/>
<line x1="682.9" y1="558.8" x2="403.6" y2="602.6" stroke-width="1.87"/>
<line x1="682.9" y1="558.8" x2="629.3" y2="456.6" stroke-width="1.80"/>
<line x1="682.9" y1="558.8" x2="895.6" y2="650.9" stroke-width="1.87"/>
<line x1="682.9" y1="558.8" x2="947.3" y2="723.7" stroke-width="1.80"/>
<line x1="878.3" y1="559.0" x2="752.1" y2="575.2" stroke-width="1.93"/>
<line x1="682.9" y1="558.8" x2="878.3" y2="559.0" stroke-width="1.87"/>
<line x1="678.6" y1="619.8" x2="878.3" y2="559.0" stroke-width="1.87"/>
<line x1="678.6" y1="619.8" x2="560.8" y2="502.9" stroke-width="1.93"/>
<line x1="678.6" y1="619.8" x2="919.3" y2="515.2" stroke-width="1.93"/>
<line x1="391.2" y1="676.3" x2="560.8" y2="502.9" stroke-width="1.93"/>
<line x1="415.6" y1="744.5" x2="678.6" y2="619.8" stroke-width="1.74"/>
<line x1="243.4" y1="783.5" x2="415.6" y2="744.5" stroke-width="1.74"/>
<line x1="1367.6" y1="629.4" x2="1490.0" y2="593.9" stroke-width="1.80"/>
<line x1="1490.0" y1="593.9" x2="1367.6" y2="629.4" stroke-width="1.80"/>
<line x1="1287.0" y1="594.3" x2="1191.7" y2="705.3" stroke-width="1.87"/>
<line x1="1191.7" y1="705.3" x2="1367.6" y2="629.4" stroke-width="1.87"/>
<line x1="1320.8" y1="487.5" x2="1287.0" y2="594.3" stroke-width="1.93"/>
<line x1="1320.8" y1="487.5" x2="1120.9" y2="559.3" stroke-width="1.80"/>
<line x1="1227.4" y1="533.5" x2="1320.8" y2="487.5" stroke-width="1.80"/>
<line x1="1435.9" y1="448.5" x2="1320.8" y2="487.5" stroke-width="1.80"/>
<line x1="1056.3" y1="833.3" x2="982.4" y2="883.7" stroke-width="1.87"/>
<line x1="1056.3" y1="833.3" x2="937.3" y2="955.2" stroke-width="1.93"/>
<line x1="1056.3" y1="833.3" x2="1120.9" y2="559.3" stroke-width="1.80"/>
<line x1="1056.3" y1="833.3" x2="1191.7" y2="705.3" stroke-width="1.80"/>
<line x1="1104.8" y1="905.0" x2="1191.7" y2="705.3" stroke-width="1.87"/>
<line x1="1104.8" y1="905.0" x2="1056.3" y2="833.3" stroke-width="1.74"/>
<line x1="942.4" y1="797.0" x2="1120.9" y2="559.3" stroke-width="1.80"/>
<line x1="1328.4" y1="684.7" x2="1207.2" y2="612.8" stroke-width="1.80"/>
<line x1="1328.4" y1="684.7" x2="1191.7" y2="705.3" stroke-width="1.87"/>
<line x1="981.0" y1="605.3" x2="1191.7" y2="705.3" stroke-width="1.87"/>
<line x1="981.0" y1="605.3" x2="540.7" y2="586.7" stroke-width="1.80"/>
<line x1="1323.6" y1="545.0" x2="1120.9" y2="559.3" stroke-width="1.80"/>
<line x1="1113.4" y1="456.5" x2="1196.5" y2="327.7" stroke-width="1.87"/>
<line x1="1314.9" y1="307.3" x2="1196.5" y2="327.7" stroke-width="1.80"/>
<line x1="1164.9" y1="411.6" x2="1090.2" y2="605.4" stroke-width="1.74"/>
<line x1="1260.0" y1="421.0" x2="1090.2" y2="605.4" stroke-width="1.74"/>
<line x1="851.5" y1="477.8" x2="682.9" y2="558.8" stroke-width="1.80"/>
<line x1="851.5" y1="477.8" x2="678.6" y2="619.8" stroke-width="1.80"/>
<line x1="688.1" y1="897.3" x2="655.7" y2="957.5" stroke-width="1.93"/>
<line x1="688.1" y1="897.3" x2="557.1" y2="1010.6" stroke-width="1.87"/>
<line x1="688.1" y1="897.3" x2="693.3" y2="800.5" stroke-width="1.80"/>
<line x1="688.1" y1="897.3" x2="671.8" y2="1062.8" stroke-width="1.87"/>
<line x1="688.1" y1="897.3" x2="776.3" y2="1049.4" stroke-width="1.80"/>
<line x1="688.1" y1="897.3" x2="597.7" y2="746.9" stroke-width="1.80"/>
<line x1="557.1" y1="1010.6" x2="655.7" y2="957.5" stroke-width="1.87"/>
<line x1="557.1" y1="1010.6" x2="671.8" y2="1062.8" stroke-width="1.80"/>
<line x1="800.8" y1="982.0" x2="655.7" y2="957.5" stroke-width="1.80"/>
<line x1="800.8" y1="982.0" x2="688.1" y2="897.3" stroke-width="1.74"/>
<line x1="693.3" y1="800.5" x2="655.7" y2="957.5" stroke-width="1.80"/>
<line x1="693.3" y1="800.5" x2="744.7" y2="677.8" stroke-width="1.87"/>
<line x1="693.3" y1="800.5" x2="595.1" y2="551.0" stroke-width="1.74"/>
<line x1="787.3" y1="907.8" x2="693.3" y2="800.5" stroke-width="1.87"/>
<line x1="787.3" y1="907.8" x2="688.1" y2="897.3" stroke-width="1.87"/>
<line x1="715.4" y1="997.6" x2="688.1" y2="897.3" stroke-width="1.87"/>
<line x1="715.4" y1="997.6" x2="671.8" y2="1062.8" stroke-width="1.80"/>
<line x1="579.0" y1="1070.0" x2="655.7" y2="957.5" stroke-width="1.80"/>
<line x1="571.0" y1="955.8" x2="579.0" y2="1070.0" stroke-width="1.87"/>
<line x1="571.0" y1="955.8" x2="688.1" y2="897.3" stroke-width="1.80"/>
<line x1="597.7" y1="746.9" x2="477.1" y2="524.5" stroke-width="1.80"/>
<line x1="597.7" y1="746.9" x2="595.1" y2="551.0" stroke-width="1.80"/>
<line x1="597.7" y1="746.9" x2="693.3" y2="800.5" stroke-width="1.80"/>
<line x1="947.3" y1="723.7" x2="1090.2" y2="605.4" stroke-width="1.80"/>
<line x1="540.7" y1="586.7" x2="403.3" y2="512.8" stroke-width="1.87"/>
<line x1="540.7" y1="586.7" x2="291.1" y2="541.3" stroke-width="1.87"/>
<line x1="672.1" y1="712.7" x2="560.8" y2="502.9" stroke-width="1.87"/>
<line x1="672.1" y1="712.7" x2="988.8" y2="666.3" stroke-width="1.87"/>
<line x1="672.1" y1="712.7" x2="744.7" y2="677.8" stroke-width="1.87"/>
<line x1="355.5" y1="916.7" x2="344.4" y2="835.4" stroke-width="1.87"/>
<line x1="355.5" y1="916.7" x2="517.9" y2="783.9" stroke-width="1.87"/>
<line x1="744.7" y1="677.8" x2="607.9" y2="620.9" stroke-width="1.80"/>
<line x1="1090.2" y1="605.4" x2="1113.4" y2="456.5" stroke-width="1.87"/>
<line x1="1090.2" y1="605.4" x2="947.3" y2="723.7" stroke-width="1.87"/>
<line x1="1034.4" y1="552.6" x2="878.3" y2="559.0" stroke-width="1.87"/>
<line x1="1034.4" y1="552.6" x2="895.6" y2="650.9" stroke-width="1.87"/>
<line x1="1100.7" y1="759.9" x2="947.3" y2="723.7" stroke-width="1.80"/>
<line x1="1100.7" y1="759.9" x2="1034.4" y2="552.6" stroke-width="1.74"/>
<line x1="1039.9" y1="407.1" x2="919.3" y2="515.2" stroke-width="1.87"/>
<line x1="752.1" y1="575.2" x2="878.3" y2="559.0" stroke-width="1.93"/>
<line x1="936.1" y1="305.9" x2="808.1" y2="320.9" stroke-width="1.87"/>
<line x1="900.5" y1="252.6" x2="804.0" y2="161.9" stroke-width="1.87"/>
<line x1="1221.9" y1="844.1" x2="1021.8" y2="775.5" stroke-width="1.80"/>
<line x1="1021.8" y1="775.5" x2="744.7" y2="677.8" stroke-width="1.80"/>
<line x1="629.3" y1="456.6" x2="682.9" y2="558.8" stroke-width="1.80"/>
<line x1="808.5" y1="812.5" x2="532.4" y2="701.9" stroke-width="1.80"/>
<line x1="1436.2" y1="534.3" x2="1367.6" y2="629.4" stroke-width="1.80"/>
<line x1="1463.8" y1="684.5" x2="1367.6" y2="629.4" stroke-width="1.74"/>
<line x1="1007.9" y1="995.4" x2="1056.3" y2="833.3" stroke-width="1.74"/>
<line x1="1207.2" y1="612.8" x2="981.0" y2="605.3" stroke-width="1.87"/>
<line x1="1207.2" y1="612.8" x2="1191.7" y2="705.3" stroke-width="1.87"/>
<line x1="909.2" y1="391.8" x2="1120.9" y2="559.3" stroke-width="1.80"/>
<line x1="909.2" y1="391.8" x2="629.3" y2="456.6" stroke-width="1.74"/>
<line x1="779.0" y1="521.4" x2="517.9" y2="783.9" stroke-width="1.87"/>
<line x1="779.0" y1="521.4" x2="940.6" y2="441.0" stroke-width="1.87"/>
<line x1="729.0" y1="448.6" x2="458.7" y2="575.1" stroke-width="1.87"/>
<line x1="729.0" y1="448.6" x2="682.9" y2="558.8" stroke-width="1.87"/>
<line x1="1095.5" y1="358.2" x2="1205.9" y2="464.2" stroke-width="1.87"/>
<line x1="1095.5" y1="358.2" x2="1120.9" y2="559.3" stroke-width="1.87"/>
<line x1="820.3" y1="700.4" x2="688.1" y2="897.3" stroke-width="1.87"/>
<line x1="820.3" y1="700.4" x2="693.3" y2="800.5" stroke-width="1.87"/>
</g>
<g font-family="Inter,Segoe UI,Arial,sans-serif">
<g>
<circle cx="498.1" cy="193.8" r="15.5" fill="#00c2d1" opacity="0.96"><title>Scoring Matrix (sequence-analysis)</title></circle>
</g>
<g>
<circle cx="1107.0" cy="225.8" r="12.5" fill="#bdbdbd" opacity="0.96"><title>Manolis Kellis (course-meta)</title></circle>
</g>
<g>
<circle cx="1020.0" cy="180.5" r="12.5" fill="#bdbdbd" opacity="0.96"><title>Eric Alm (course-meta)</title></circle>
</g>
<g>
<circle cx="1236.4" cy="952.0" r="15.9" fill="#6c5ce7" opacity="0.96"><title>Data-Driven Paradigm (foundations)</title></circle>
</g>
<g>
<circle cx="1139.8" cy="1005.9" r="15.7" fill="#6c5ce7" opacity="0.96"><title>Hypothesis-Driven Paradigm (foundations)</title></circle>
</g>
<g>
<circle cx="692.8" cy="202.9" r="15.7" fill="#54a0ff" opacity="0.96"><title>Gibbs Sampling (classical-ml)</title></circle>
</g>
<g>
<circle cx="720.5" cy="130.0" r="15.9" fill="#54a0ff" opacity="0.96"><title>t-SNE (classical-ml)</title></circle>
</g>
<g>
<circle cx="424.7" cy="862.9" r="16.2" fill="#00d2ff" opacity="0.96"><title>Cell Type Annotation (genomics)</title></circle>
</g>
<g>
<circle cx="443.9" cy="934.4" r="16.4" fill="#00d2ff" opacity="0.96"><title>Trajectory Inference (genomics)</title></circle>
</g>
<g>
<circle cx="517.1" cy="882.0" r="15.7" fill="#00d2ff" opacity="0.96"><title>Scanpy (genomics)</title></circle>
</g>
<g>
<circle cx="458.9" cy="257.3" r="15.7" fill="#00c2d1" opacity="0.96"><title>MEME (sequence-analysis)</title></circle>
</g>
<g>
<circle cx="1180.6" cy="778.7" r="16.8" fill="#a3e635" opacity="0.96"><title>ATAC-seq (epigenomics)</title></circle>
</g>
<g>
<circle cx="430.8" cy="420.5" r="17.2" fill="#f15bb5" opacity="0.96"><title>Promoter (regulatory-genomics)</title></circle>
</g>
<g>
<circle cx="329.1" cy="395.0" r="16.2" fill="#f15bb5" opacity="0.96"><title>Network Motif (regulatory-genomics)</title></circle>
</g>
<g>
<circle cx="232.3" cy="452.7" r="15.7" fill="#f4b942" opacity="0.96"><title>Alpha Helix (protein)</title></circle>
</g>
<g>
<circle cx="143.6" cy="482.1" r="15.7" fill="#f4b942" opacity="0.96"><title>Beta Sheet (protein)</title></circle>
</g>
<g>
<circle cx="243.1" cy="610.4" r="16.4" fill="#f4b942" opacity="0.96"><title>lDDT Score (protein)</title></circle>
</g>
<g>
<circle cx="403.6" cy="602.6" r="17.2" fill="#f4b942" opacity="0.96"><title>Zero-Shot Fitness Prediction (protein)</title></circle>
</g>
<g>
<circle cx="391.2" cy="676.3" r="17.2" fill="#c7c7c7" opacity="0.96"><title>Nucleotide Transformer (genomics-ml)</title></circle>
</g>
<g>
<circle cx="243.4" cy="783.5" r="16.2" fill="#c7c7c7" opacity="0.96"><title>Caduceus (genomics-ml)</title></circle>
</g>
<g>
<circle cx="1323.6" cy="545.0" r="17.2" fill="#b6e84f" opacity="0.96"><title>ADMET (drug-discovery)</title></circle>
</g>
<g>
<circle cx="1227.4" cy="533.5" r="15.7" fill="#b6e84f" opacity="0.96"><title>SchNet (drug-discovery)</title></circle>
</g>
<g>
<circle cx="1007.9" cy="995.4" r="16.2" fill="#e056fd" opacity="0.96"><title>Normalizing Flow (generative-models)</title></circle>
</g>
<g>
<circle cx="942.4" cy="797.0" r="16.7" fill="#e056fd" opacity="0.96"><title>Reinforcement Learning for Drug Design (generative-models)</title></circle>
</g>
<g>
<circle cx="1164.9" cy="411.6" r="16.7" fill="#8a5cf6" opacity="0.96"><title>Batch Normalization (deep-learning)</title></circle>
</g>
<g>
<circle cx="1260.0" cy="421.0" r="16.4" fill="#8a5cf6" opacity="0.96"><title>Dropout (deep-learning)</title></circle>
</g>
<g>
<circle cx="1314.9" cy="307.3" r="16.7" fill="#8a5cf6" opacity="0.96"><title>Adam Optimizer (deep-learning)</title></circle>
</g>
<g>
<circle cx="937.3" cy="955.2" r="17.2" fill="#e056fd" opacity="0.96"><title>Evidence Lower Bound (generative-models)</title></circle>
</g>
<g>
<circle cx="1039.9" cy="407.1" r="17.4" fill="#8a5cf6" opacity="0.96"><title>Cross-Entropy Loss (deep-learning)</title></circle>
</g>
<g>
<circle cx="1463.8" cy="684.5" r="15.2" fill="#b6e84f" opacity="0.96"><title>InChI (drug-discovery)</title></circle>
</g>
<g>
<circle cx="1436.2" cy="534.3" r="14.8" fill="#b6e84f" opacity="0.96"><title>SMARTS (drug-discovery)</title></circle>
</g>
<g>
<circle cx="110.0" cy="570.0" r="16.2" fill="#f4b942" opacity="0.96"><title>Rosetta (protein)</title></circle>
</g>
<g>
<circle cx="282.9" cy="674.6" r="16.2" fill="#f4b942" opacity="0.96"><title>AlphaFold (v1) (protein)</title></circle>
</g>
<g>
<circle cx="1435.9" cy="448.5" r="15.7" fill="#b6e84f" opacity="0.96"><title>DimeNet (drug-discovery)</title></circle>
</g>
<g>
<circle cx="1369.6" cy="819.5" r="16.4" fill="#a3e635" opacity="0.96"><title>ENCODE (epigenomics)</title></circle>
</g>
<g>
<circle cx="264.7" cy="312.8" r="15.7" fill="#f15bb5" opacity="0.96"><title>SCENIC (regulatory-genomics)</title></circle>
</g>
<g>
<circle cx="776.3" cy="1049.4" r="15.7" fill="#ff5d5d" opacity="0.96"><title>Manhattan Plot (genetics-disease)</title></circle>
</g>
<g>
<circle cx="1221.9" cy="844.1" r="15.7" fill="#a3e635" opacity="0.96"><title>CpG Island (epigenomics)</title></circle>
</g>
<g>
<circle cx="808.5" cy="812.5" r="15.9" fill="#6c5ce7" opacity="0.96"><title>Benchmarking (foundations)</title></circle>
</g>
<g>
<circle cx="982.4" cy="883.7" r="18.6" fill="#6c5ce7" opacity="0.96"><title>Latent Space (foundations)</title></circle>
</g>
<g>
<circle cx="1100.7" cy="759.9" r="16.7" fill="#6c5ce7" opacity="0.96"><title>Multimodal Foundation Models (foundations)</title></circle>
</g>
<g>
<circle cx="344.4" cy="835.4" r="17.1" fill="#00d2ff" opacity="0.96"><title>RNA-seq (genomics)</title></circle>
</g>
<g>
<circle cx="744.8" cy="377.7" r="17.6" fill="#54a0ff" opacity="0.96"><title>K-Means Clustering (classical-ml)</title></circle>
</g>
<g>
<circle cx="806.9" cy="237.5" r="17.3" fill="#54a0ff" opacity="0.96"><title>Gaussian Mixture Model (classical-ml)</title></circle>
</g>
<g>
<circle cx="660.1" cy="387.4" r="17.6" fill="#54a0ff" opacity="0.96"><title>Principal Component Analysis (classical-ml)</title></circle>
</g>
<g>
<circle cx="714.1" cy="262.1" r="17.6" fill="#54a0ff" opacity="0.96"><title>UMAP (classical-ml)</title></circle>
</g>
<g>
<circle cx="599.3" cy="203.9" r="18.2" fill="#00c2d1" opacity="0.96"><title>Sequence Alignment (sequence-analysis)</title></circle>
</g>
<g>
<circle cx="804.0" cy="161.9" r="17.6" fill="#54a0ff" opacity="0.96"><title>Dynamic Programming (classical-ml)</title></circle>
</g>
<g>
<circle cx="524.2" cy="324.5" r="17.6" fill="#00c2d1" opacity="0.96"><title>BLAST (sequence-analysis)</title></circle>
</g>
<g>
<circle cx="900.5" cy="252.6" r="17.6" fill="#54a0ff" opacity="0.96"><title>Viterbi Algorithm (classical-ml)</title></circle>
</g>
<g>
<circle cx="936.1" cy="305.9" r="16.8" fill="#54a0ff" opacity="0.96"><title>Baum-Welch Algorithm (classical-ml)</title></circle>
</g>
<g>
<circle cx="1059.7" cy="710.7" r="17.9" fill="#a3e635" opacity="0.96"><title>Histone Modification (epigenomics)</title></circle>
</g>
<g>
<circle cx="1137.1" cy="648.3" r="16.7" fill="#a3e635" opacity="0.96"><title>ChromHMM (epigenomics)</title></circle>
</g>
<g>
<circle cx="1021.8" cy="775.5" r="16.7" fill="#a3e635" opacity="0.96"><title>DNA Methylation (epigenomics)</title></circle>
</g>
<g>
<circle cx="477.1" cy="524.5" r="17.9" fill="#f15bb5" opacity="0.96"><title>Enhancer (regulatory-genomics)</title></circle>
</g>
<g>
<circle cx="391.6" cy="341.9" r="17.1" fill="#f15bb5" opacity="0.96"><title>Network Inference (regulatory-genomics)</title></circle>
</g>
<g>
<circle cx="155.2" cy="642.4" r="17.1" fill="#f4b942" opacity="0.96"><title>Protein Contact Map (protein)</title></circle>
</g>
<g>
<circle cx="193.4" cy="545.4" r="16.8" fill="#f4b942" opacity="0.96"><title>Coevolution Analysis (protein)</title></circle>
</g>
<g>
<circle cx="403.3" cy="512.8" r="17.9" fill="#f4b942" opacity="0.96"><title>Protein Sequence (protein)</title></circle>
</g>
<g>
<circle cx="415.6" cy="744.5" r="17.1" fill="#c7c7c7" opacity="0.96"><title>HyenaDNA (genomics-ml)</title></circle>
</g>
<g>
<circle cx="1328.4" cy="684.7" r="17.1" fill="#b6e84f" opacity="0.96"><title>Virtual Screening (drug-discovery)</title></circle>
</g>
<g>
<circle cx="1490.0" cy="593.9" r="17.1" fill="#b6e84f" opacity="0.96"><title>SELFIES (drug-discovery)</title></circle>
</g>
<g>
<circle cx="1104.8" cy="905.0" r="18.2" fill="#e056fd" opacity="0.96"><title>Diffusion Model (generative-models)</title></circle>
</g>
<g>
<circle cx="1113.4" cy="456.5" r="18.2" fill="#8a5cf6" opacity="0.96"><title>Backpropagation (deep-learning)</title></circle>
</g>
<g>
<circle cx="851.5" cy="477.8" r="18.6" fill="#8a5cf6" opacity="0.96"><title>Transfer Learning (deep-learning)</title></circle>
</g>
<g>
<circle cx="579.0" cy="1070.0" r="18.2" fill="#ff5d5d" opacity="0.96"><title>Heritability (genetics-disease)</title></circle>
</g>
<g>
<circle cx="571.0" cy="955.8" r="17.6" fill="#ff5d5d" opacity="0.96"><title>LD Score Regression (genetics-disease)</title></circle>
</g>
<g>
<circle cx="787.3" cy="907.8" r="17.6" fill="#ff5d5d" opacity="0.96"><title>Colocalization Analysis (genetics-disease)</title></circle>
</g>
<g>
<circle cx="715.4" cy="997.6" r="17.6" fill="#ff5d5d" opacity="0.96"><title>Fine-Mapping (genetics-disease)</title></circle>
</g>
<g>
<circle cx="800.8" cy="982.0" r="17.1" fill="#ff5d5d" opacity="0.96"><title>Mendelian Randomization (genetics-disease)</title></circle>
</g>
<g>
<circle cx="355.5" cy="916.7" r="18.6" fill="#00d2ff" opacity="0.96"><title>RNA (genomics)</title></circle>
</g>
<g>
<circle cx="909.2" cy="391.8" r="20.6" fill="#bdbdbd" opacity="0.96"><title>Computational Biology (course-meta)</title></circle>
<text x="934.8" y="396.8" fill="#e8e8e8" font-size="13" opacity="0.9">Computational Biology</text>
</g>
<g>
<circle cx="779.0" cy="521.4" r="13.4" fill="#bdbdbd" opacity="0.96"><title>Module 1: Genomics and Regulatory Networks (course-meta)</title></circle>
</g>
<g>
<circle cx="729.0" cy="448.6" r="13.4" fill="#bdbdbd" opacity="0.96"><title>Module 2: Protein Structure and Language Models (course-meta)</title></circle>
</g>
<g>
<circle cx="1095.5" cy="358.2" r="13.4" fill="#bdbdbd" opacity="0.96"><title>Module 3: Chemistry and Drug Discovery (course-meta)</title></circle>
</g>
<g>
<circle cx="820.3" cy="700.4" r="13.4" fill="#bdbdbd" opacity="0.96"><title>Module 4: Genetics and Disease (course-meta)</title></circle>
</g>
<g>
<circle cx="532.4" cy="701.9" r="17.1" fill="#f4b942" opacity="0.96"><title>CASP (protein)</title></circle>
</g>
<g>
<circle cx="1196.5" cy="327.7" r="17.6" fill="#8a5cf6" opacity="0.96"><title>Stochastic Gradient Descent (deep-learning)</title></circle>
</g>
<g>
<circle cx="895.6" cy="650.9" r="19.6" fill="#6c5ce7" opacity="0.96"><title>Self-Supervised Learning (foundations)</title></circle>
<text x="920.1" y="655.9" fill="#e8e8e8" font-size="13" opacity="0.9">Self-Supervised Learning</text>
</g>
<g>
<circle cx="1034.4" cy="552.6" r="19.1" fill="#8a5cf6" opacity="0.96"><title>Large Language Model (deep-learning)</title></circle>
</g>
<g>
<circle cx="988.8" cy="666.3" r="18.4" fill="#a3e635" opacity="0.96"><title>Chromatin (epigenomics)</title></circle>
</g>
<g>
<circle cx="1263.8" cy="751.8" r="18.1" fill="#a3e635" opacity="0.96"><title>ChIP-seq (epigenomics)</title></circle>
</g>
<g>
<circle cx="319.5" cy="603.2" r="18.6" fill="#f4b942" opacity="0.96"><title>Multiple Sequence Alignment (protein)</title></circle>
</g>
<g>
<circle cx="485.6" cy="644.0" r="19.1" fill="#f4b942" opacity="0.96"><title>Evoformer (protein)</title></circle>
</g>
<g>
<circle cx="1287.0" cy="594.3" r="19.1" fill="#b6e84f" opacity="0.96"><title>Molecular Graph (drug-discovery)</title></circle>
</g>
<g>
<circle cx="557.1" cy="1010.6" r="19.6" fill="#ff5d5d" opacity="0.96"><title>Polygenic Risk Score (genetics-disease)</title></circle>
<text x="581.7" y="1015.6" fill="#e8e8e8" font-size="13" opacity="0.9">Polygenic Risk Score</text>
</g>
<g>
<circle cx="671.8" cy="1062.8" r="18.4" fill="#ff5d5d" opacity="0.96"><title>Linkage Disequilibrium (genetics-disease)</title></circle>
</g>
<g>
<circle cx="540.7" cy="586.7" r="19.9" fill="#f4b942" opacity="0.96"><title>Protein (protein)</title></circle>
<text x="565.6" y="591.7" fill="#e8e8e8" font-size="13" opacity="0.9">Protein</text>
</g>
<g>
<circle cx="672.1" cy="712.7" r="19.6" fill="#00d2ff" opacity="0.96"><title>DNA (genomics)</title></circle>
<text x="696.6" y="717.7" fill="#e8e8e8" font-size="13" opacity="0.9">DNA</text>
</g>
<g>
<circle cx="981.0" cy="605.3" r="18.4" fill="#b6e84f" opacity="0.96"><title>Drug Target (drug-discovery)</title></circle>
</g>
<g>
<circle cx="1207.2" cy="612.8" r="17.6" fill="#b6e84f" opacity="0.96"><title>Molecular Docking (drug-discovery)</title></circle>
</g>
<g>
<circle cx="629.3" cy="456.6" r="18.1" fill="#f4b942" opacity="0.96"><title>Protein Design (protein)</title></circle>
</g>
<g>
<circle cx="1205.9" cy="464.2" r="20.3" fill="#8a5cf6" opacity="0.96"><title>Graph Neural Network (deep-learning)</title></circle>
<text x="1231.2" y="469.2" fill="#e8e8e8" font-size="13" opacity="0.9">Graph Neural Network</text>
</g>
<g>
<circle cx="808.1" cy="320.9" r="19.1" fill="#54a0ff" opacity="0.96"><title>Expectation-Maximization (classical-ml)</title></circle>
</g>
<g>
<circle cx="607.9" cy="620.9" r="18.8" fill="#00d2ff" opacity="0.96"><title>Gene Expression Matrix (genomics)</title></circle>
</g>
<g>
<circle cx="611.8" cy="326.4" r="18.1" fill="#00c2d1" opacity="0.96"><title>Motif Finding (sequence-analysis)</title></circle>
</g>
<g>
<circle cx="507.5" cy="452.4" r="19.1" fill="#f15bb5" opacity="0.96"><title>Gene Regulatory Network (regulatory-genomics)</title></circle>
</g>
<g>
<circle cx="752.1" cy="575.2" r="20.3" fill="#8a5cf6" opacity="0.96"><title>Attention Mechanism (deep-learning)</title></circle>
<text x="777.4" y="580.2" fill="#e8e8e8" font-size="13" opacity="0.9">Attention Mechanism</text>
</g>
<g>
<circle cx="919.3" cy="515.2" r="19.6" fill="#8a5cf6" opacity="0.96"><title>Masked Language Modeling (deep-learning)</title></circle>
</g>
<g>
<circle cx="560.8" cy="502.9" r="19.1" fill="#00c2d1" opacity="0.96"><title>DNA Sequence (sequence-analysis)</title></circle>
</g>
<g>
<circle cx="597.7" cy="746.9" r="19.1" fill="#ff5d5d" opacity="0.96"><title>Disease Circuitry (genetics-disease)</title></circle>
</g>
<g>
<circle cx="947.3" cy="723.7" r="21.5" fill="#6c5ce7" opacity="0.96"><title>Representation Learning (foundations)</title></circle>
<text x="973.8" y="728.7" fill="#e8e8e8" font-size="13" opacity="0.9">Representation Learning</text>
</g>
<g>
<circle cx="678.6" cy="619.8" r="19.5" fill="#c7c7c7" opacity="0.96"><title>DNABERT (genomics-ml)</title></circle>
</g>
<g>
<circle cx="1367.6" cy="629.4" r="19.5" fill="#b6e84f" opacity="0.96"><title>SMILES (drug-discovery)</title></circle>
</g>
<g>
<circle cx="1320.8" cy="487.5" r="20.0" fill="#b6e84f" opacity="0.96"><title>Message Passing Neural Network (drug-discovery)</title></circle>
</g>
<g>
<circle cx="655.7" cy="957.5" r="20.0" fill="#ff5d5d" opacity="0.96"><title>Single Nucleotide Polymorphism (genetics-disease)</title></circle>
</g>
<g>
<circle cx="1090.2" cy="605.4" r="20.8" fill="#6c5ce7" opacity="0.96"><title>Deep Learning (foundations)</title></circle>
<text x="1115.9" y="610.4" fill="#e8e8e8" font-size="13" opacity="0.9">Deep Learning</text>
</g>
<g>
<circle cx="878.3" cy="559.0" r="21.1" fill="#8a5cf6" opacity="0.96"><title>Transformer (deep-learning)</title></circle>
<text x="904.4" y="564.0" fill="#e8e8e8" font-size="13" opacity="0.9">Transformer</text>
</g>
<g>
<circle cx="940.6" cy="441.0" r="20.4" fill="#54a0ff" opacity="0.96"><title>Hidden Markov Model (classical-ml)</title></circle>
</g>
<g>
<circle cx="291.1" cy="541.3" r="20.9" fill="#f4b942" opacity="0.96"><title>Protein Structure (protein)</title></circle>
<text x="317.0" y="546.3" fill="#e8e8e8" font-size="13" opacity="0.9">Protein Structure</text>
</g>
<g>
<circle cx="1056.3" cy="833.3" r="20.4" fill="#e056fd" opacity="0.96"><title>Variational Autoencoder (generative-models)</title></circle>
</g>
<g>
<circle cx="517.9" cy="783.9" r="20.9" fill="#00d2ff" opacity="0.96"><title>scRNA-seq (genomics)</title></circle>
</g>
<g>
<circle cx="595.1" cy="551.0" r="20.9" fill="#f15bb5" opacity="0.96"><title>Transcription Factor (regulatory-genomics)</title></circle>
</g>
<g>
<circle cx="1120.9" cy="559.3" r="21.6" fill="#b6e84f" opacity="0.96"><title>Drug Discovery (drug-discovery)</title></circle>
<text x="1147.5" y="564.3" fill="#e8e8e8" font-size="13" opacity="0.9">Drug Discovery</text>
</g>
<g>
<circle cx="693.3" cy="800.5" r="20.9" fill="#ff5d5d" opacity="0.96"><title>Expression Quantitative Trait Locus (genetics-disease)</title></circle>
</g>
<g>
<circle cx="744.7" cy="677.8" r="20.9" fill="#00d2ff" opacity="0.96"><title>Gene (genomics)</title></circle>
</g>
<g>
<circle cx="1191.7" cy="705.3" r="20.9" fill="#b6e84f" opacity="0.96"><title>Small Molecule (drug-discovery)</title></circle>
</g>
<g>
<circle cx="458.7" cy="575.1" r="22.9" fill="#f4b942" opacity="0.96"><title>AlphaFold2 (protein)</title></circle>
<text x="486.5" y="580.1" fill="#e8e8e8" font-size="13" opacity="0.9">AlphaFold2</text>
</g>
<g>
<circle cx="682.9" cy="558.8" r="23.0" fill="#f4b942" opacity="0.96"><title>ESM-2 (protein)</title></circle>
<text x="710.9" y="563.8" fill="#e8e8e8" font-size="13" opacity="0.9">ESM-2</text>
</g>
<g>
<circle cx="688.1" cy="897.3" r="23.8" fill="#ff5d5d" opacity="0.96"><title>Genome-Wide Association Study (genetics-disease)</title></circle>
<text x="716.8" y="902.3" fill="#e8e8e8" font-size="13" opacity="0.9">Genome-Wide Association Study</text>
</g>
</g>
<g font-family="Inter,Segoe UI,Arial,sans-serif" font-size="15">
<rect x="52" y="952" width="360" height="170" rx="12" fill="#202020" opacity="0.92" stroke="#3a3a3a"/>
<text x="70" y="980" fill="#f0f0f0" font-size="18" font-weight="700">Cluster colors</text>
<circle cx="70" cy="1005" r="7" fill="#54a0ff"/>
<text x="86" y="1010" fill="#d6d6d6">classical-ml</text>
<circle cx="70" cy="1029" r="7" fill="#bdbdbd"/>
<text x="86" y="1034" fill="#d6d6d6">course-meta</text>
<circle cx="70" cy="1053" r="7" fill="#8a5cf6"/>
<text x="86" y="1058" fill="#d6d6d6">deep-learning</text>
<circle cx="70" cy="1077" r="7" fill="#b6e84f"/>
<text x="86" y="1082" fill="#d6d6d6">drug-discovery</text>
<circle cx="70" cy="1101" r="7" fill="#a3e635"/>
<text x="86" y="1106" fill="#d6d6d6">epigenomics</text>
<circle cx="240" cy="1005" r="7" fill="#6c5ce7"/>
<text x="256" y="1010" fill="#d6d6d6">foundations</text>
<circle cx="240" cy="1029" r="7" fill="#e056fd"/>
<text x="256" y="1034" fill="#d6d6d6">generative-models</text>
<circle cx="240" cy="1053" r="7" fill="#ff5d5d"/>
<text x="256" y="1058" fill="#d6d6d6">genetics-disease</text>
<circle cx="240" cy="1077" r="7" fill="#00d2ff"/>
<text x="256" y="1082" fill="#d6d6d6">genomics</text>
<circle cx="240" cy="1101" r="7" fill="#c7c7c7"/>
<text x="256" y="1106" fill="#d6d6d6">genomics-ml</text>
</g>
</svg>